<?xml version="1.0" encoding="UTF-8" standalone="no"?>
<!-- Created with Inkscape (http://www.inkscape.org/) -->

<svg
   xmlns:dc="http://purl.org/dc/elements/1.1/"
   xmlns:cc="http://creativecommons.org/ns#"
   xmlns:rdf="http://www.w3.org/1999/02/22-rdf-syntax-ns#"
   xmlns:svg="http://www.w3.org/2000/svg"
   xmlns="http://www.w3.org/2000/svg"
   xmlns:sodipodi="http://sodipodi.sourceforge.net/DTD/sodipodi-0.dtd"
   xmlns:inkscape="http://www.inkscape.org/namespaces/inkscape"
   width="210mm"
   height="297mm"
   viewBox="0 0 744.09448819 1052.3622047"
   id="svg2"
   version="1.1"
   inkscape:version="0.91 r13725"
   sodipodi:docname="nube.svg">
  <defs
     id="defs4" />
  <sodipodi:namedview
     id="base"
     pagecolor="#ffffff"
     bordercolor="#666666"
     borderopacity="1.0"
     inkscape:pageopacity="0.0"
     inkscape:pageshadow="2"
     inkscape:zoom="1.4"
     inkscape:cx="460.99161"
     inkscape:cy="661.66033"
     inkscape:document-units="px"
     inkscape:current-layer="layer1"
     showgrid="false"
     inkscape:window-width="1920"
     inkscape:window-height="1026"
     inkscape:window-x="0"
     inkscape:window-y="29"
     inkscape:window-maximized="1" />
  <metadata
     id="metadata7">
    <rdf:RDF>
      <cc:Work
         rdf:about="">
        <dc:format>image/svg+xml</dc:format>
        <dc:type
           rdf:resource="http://purl.org/dc/dcmitype/StillImage" />
        <dc:title></dc:title>
      </cc:Work>
    </rdf:RDF>
  </metadata>
  <g
     inkscape:label="Capa 1"
     inkscape:groupmode="layer"
     id="layer1">
    <g
       id="g4140">
      <path
         sodipodi:nodetypes="cscscscscscscscszscscsc"
         inkscape:connector-curvature="0"
         id="path4136"
         d="m 156.57364,441.21991 c 0,0 10.10153,-43.43655 41.41626,-49.49747 31.31473,-6.06092 43.43656,14.14214 43.43656,14.14214 0,0 -2.02031,-48.48733 19.1929,-52.52794 21.2132,-4.04061 35.35534,13.13199 35.35534,13.13199 0,0 -11.11168,-42.42641 24.24366,-46.46702 35.35534,-4.04061 24.24366,28.28427 24.24366,28.28427 0,0 18.0488,-12.0746 44.69925,5.3033 22.82465,14.88321 1.76777,51.26524 1.76777,51.26524 0,0 53.53808,-7.07106 66.67006,30.30458 13.13199,37.37564 -14.14213,47.47717 -14.14213,47.47717 0,0 23.23351,-10.10153 41.41625,-8.08122 18.18275,2.0203 34.34519,25.25381 34.34519,25.25381 0,0 -12.12183,-8.08122 8.08122,-12.12183 20.20305,-4.04061 4.04061,15.15229 4.04061,15.15229 0,0 1.01015,8.08122 28.28427,13.13198 27.27412,5.05077 -422.5689,1.81852 -440.42651,1.01016 -17.85761,-0.80836 -28.284271,-13.13199 -23.233508,-23.23351 5.050758,-10.10153 20.203048,-3.03046 20.203048,-3.03046 0,0 -13.13198,-14.14214 -1.01015,-19.1929 12.12183,-5.05076 28.28427,6.06092 28.28427,6.06092 0,0 -25.25381,-11.11168 -13.13198,-27.27412 12.12183,-16.16244 26.26396,-9.09138 26.26396,-9.09138 z"
         style="fill:#ffffff;fill-rule:evenodd;stroke:none;stroke-width:1px;stroke-linecap:butt;stroke-linejoin:miter;stroke-opacity:1" />
      <path
         sodipodi:nodetypes="cscscssscscscccssscscscscscscscscscscscscsc"
         inkscape:connector-curvature="0"
         id="path4138"
         d="m 301.78571,330.21935 c 0,0 12.99578,-14.90368 27.5,-11.42858 28.42786,6.8111 14.64286,28.92858 14.64286,28.92858 0,0 25,-11.07143 46.42857,5.71428 21.42857,16.78572 0,51.42857 0,51.42857 0,0 46.97263,-5.68653 61.07143,18.21429 18.75,31.78572 5.35715,54.64286 -6.07143,59.28571 -11.42857,4.64286 22.48468,-11.73591 41.25,-7.14286 21.39859,5.23758 31.60715,23.92858 31.60715,23.92858 0,0 8.57143,1.07143 10,-3.92857 1.42857,-5 2.85714,-8.21429 2.85714,-8.21429 0,0 2.14286,-3.21428 3.21429,0.35714 1.07142,3.57143 -3.21429,16.78572 -3.21429,16.78572 L 560,517.00506 l -79.28571,1.78572 c 0,0 7.5,-6.07143 7.14285,-12.14286 -0.35714,-6.07143 -21.78571,-17.85714 -30.71428,-8.92857 -8.92857,8.92857 5,-3.21429 -0.35714,-7.85715 -5.35715,-4.64285 -20.71429,1.78572 -20.71429,1.78572 0,0 16.07143,-19.28572 12.85714,-30.35714 -3.21428,-11.07143 -32.5,-6.42858 -32.5,-6.42858 0,0 16.07143,-7.5 13.92857,-19.28571 -2.14285,-11.78571 -17.5,-10.71429 -17.5,-10.71429 0,0 5.35715,-11.78571 -6.07143,-11.78571 -11.42857,0 -4.28571,14.28571 -4.28571,14.28571 0,0 -16.07143,-4.28571 -23.21429,7.14286 -7.14285,11.42857 -4.28571,6.78572 -4.28571,6.78572 0,0 3.21429,-18.21429 -8.57143,-20.35715 -11.78571,-2.14285 -10.35714,-2.14285 -10.35714,-2.14285 0,0 8.57143,-1.78572 12.85714,-11.42858 4.28572,-9.64285 -7.85714,-20.35714 -7.85714,-20.35714 0,0 17.5,-5.71428 16.07143,-14.64286 -1.42857,-8.92857 -20.35715,-0.71428 -20.35715,-0.71428 0,0 17.5,-11.42857 3.92858,-15.35714 -13.57143,-3.92858 -15.35715,16.78571 -15.35715,16.78571 0,0 -21.07143,-11.42857 -31.07143,-9.28571 -10,2.14285 -10,2.5 -10,2.5 0,0 13.21429,-2.5 13.57143,-10 0.35715,-7.5 -3.57143,-10.71429 -3.57143,-10.71429 0,0 9.28572,5 16.42858,-0.35714 7.14285,-5.35715 -6.42858,-17.5 -6.42858,-17.5 0,0 5,-6.07143 -3.21428,-4.64286 -8.21429,1.42857 -19.28572,7.14286 -19.28572,7.14286 z"
         style="fill:#d7eef4;fill-rule:evenodd;stroke:none;stroke-width:1px;stroke-linecap:butt;stroke-linejoin:miter;stroke-opacity:1" />
    </g>
  </g>
</svg>
